<svg width="50" height="50" viewBox="0 0 50 50" fill="none" xmlns="http://www.w3.org/2000/svg">
<path d="M4.16699 25C4.16699 16.1604 4.16699 11.7417 7.21699 8.99583C10.2712 6.25 15.1795 6.25 25.0003 6.25C34.8212 6.25 39.7316 6.25 42.7816 8.99583C45.8316 11.7417 45.8337 16.1625 45.8337 25C45.8337 33.8375 45.8337 38.2583 42.7816 41.0042C39.7337 43.75 34.8212 43.75 25.0003 43.75C15.1795 43.75 10.2691 43.75 7.21699 41.0042C4.16491 38.2583 4.16699 33.8375 4.16699 25Z" stroke="#EBEBEB" stroke-width="1.5" stroke-linecap="round" stroke-linejoin="round"/>
<path d="M12.5 33.3333H20.8333M29.1667 16.6666H37.5M29.1667 25H37.5M29.1667 33.3333H37.5M17.5 16.6666H15.8333C14.2625 16.6666 13.4771 16.6666 12.9875 17.1541C12.5 17.6458 12.5 18.4291 12.5 20V21.6666C12.5 23.2375 12.5 24.0229 12.9875 24.5125C13.4792 25 14.2625 25 15.8333 25H17.5C19.0708 25 19.8562 25 20.3458 24.5125C20.8333 24.0208 20.8333 23.2375 20.8333 21.6666V20C20.8333 18.4291 20.8333 17.6437 20.3458 17.1541C19.8542 16.6666 19.0708 16.6666 17.5 16.6666Z" stroke="#EBEBEB" stroke-width="1.5" stroke-linecap="round" stroke-linejoin="round"/>
</svg>
