<svg width="50" height="50" viewBox="0 0 50 50" fill="none" xmlns="http://www.w3.org/2000/svg">
<path d="M45.8333 6.25H4.16667C1.875 6.25 0 8.125 0 10.4167V39.5833C0 41.875 1.875 43.75 4.16667 43.75H45.8333C48.125 43.75 49.9792 41.875 49.9792 39.5833L50 10.4167C50 8.125 48.125 6.25 45.8333 6.25ZM45.8333 39.5833H4.16667V10.4167H45.8333V39.5833ZM43.75 12.5H29.1667V22.9167H43.75V12.5ZM41.6667 16.6667L36.4583 20.3125L31.25 16.6667V14.5833L36.4583 18.2292L41.6667 14.5833V16.6667ZM18.75 25C22.1875 25 25 22.1875 25 18.75C25 15.3125 22.1875 12.5 18.75 12.5C15.3125 12.5 12.5 15.3125 12.5 18.75C12.5 22.1875 15.3125 25 18.75 25ZM18.75 16.6667C19.8958 16.6667 20.8333 17.6042 20.8333 18.75C20.8333 19.8958 19.8958 20.8333 18.75 20.8333C17.6042 20.8333 16.6667 19.8958 16.6667 18.75C16.6667 17.6042 17.6042 16.6667 18.75 16.6667ZM31.25 34.5625C31.25 29.3542 22.9792 27.1042 18.75 27.1042C14.5208 27.1042 6.25 29.3542 6.25 34.5625V37.5H31.25V34.5625ZM11.4167 33.3333C12.9583 32.2917 16.0417 31.25 18.75 31.25C21.4583 31.25 24.5208 32.2708 26.0833 33.3333H11.4167Z" fill="#EBEBEB"/>
</svg>
