<svg width="50" height="50" viewBox="0 0 50 50" fill="none" xmlns="http://www.w3.org/2000/svg">
<path d="M29.5663 23.3166H43.3497V13.7021H29.5663V23.3166ZM36.458 20.9541L31.3309 17.3875V15.5458L36.458 19.1104L41.5872 15.5458V17.3875L36.458 20.9541ZM5.44967 40.8666C4.48995 40.8666 3.68926 40.5451 3.04759 39.902C2.40592 39.259 2.0844 38.4583 2.08301 37.5V12.5C2.08301 11.5416 2.40454 10.7409 3.04759 10.0979C3.69065 9.45483 4.49065 9.1333 5.44759 9.1333H44.5518C45.5101 9.1333 46.3108 9.45483 46.9538 10.0979C47.5969 10.7409 47.9177 11.5416 47.9163 12.5V37.5C47.9163 38.4583 47.5955 39.259 46.9538 39.902C46.3122 40.5451 45.5115 40.8666 44.5518 40.8666H5.44967ZM30.8018 38.7833H44.5518C44.8712 38.7833 45.165 38.6493 45.433 38.3812C45.6997 38.1146 45.833 37.8208 45.833 37.5V12.5C45.833 12.1805 45.6997 11.8868 45.433 11.6187C45.165 11.3521 44.8705 11.2187 44.5497 11.2187H5.44967C5.12884 11.2187 4.8344 11.3521 4.56634 11.6187C4.29829 11.8854 4.16495 12.1791 4.16634 12.5V37.5C4.16634 37.8194 4.29967 38.1132 4.56634 38.3812C4.83301 38.6493 5.12676 38.7833 5.44759 38.7833H6.69759C8.15592 36.9 9.92954 35.3875 12.0184 34.2458C14.1073 33.1041 16.3511 32.5333 18.7497 32.5333C21.1483 32.5333 23.3913 33.1041 25.4788 34.2458C27.5663 35.3875 29.3406 36.9 30.8018 38.7833ZM18.7497 29.6458C20.1927 29.6458 21.4219 29.1382 22.4372 28.1229C23.4525 27.1076 23.9594 25.8784 23.958 24.4354C23.9566 22.9923 23.4497 21.7646 22.4372 20.7521C21.4247 19.7396 20.1955 19.2319 18.7497 19.2291C17.3038 19.2264 16.0747 19.7333 15.0622 20.75C14.0497 21.7666 13.5427 22.9958 13.5413 24.4375C13.54 25.8791 14.0469 27.1076 15.0622 28.1229C16.0775 29.1382 17.3066 29.6472 18.7497 29.6458ZM9.47884 38.7812H28.0205C26.8122 37.4618 25.408 36.4375 23.808 35.7083C22.2066 34.9791 20.5205 34.6145 18.7497 34.6145C16.9788 34.6145 15.2948 34.9791 13.6976 35.7083C12.1004 36.4375 10.6941 37.4618 9.47884 38.7812ZM18.7497 27.5625C17.8927 27.5625 17.1573 27.2562 16.5434 26.6437C15.9309 26.0298 15.6247 25.2937 15.6247 24.4354C15.6247 23.5771 15.9309 22.8423 16.5434 22.2312C17.1559 21.6201 17.8913 21.3146 18.7497 21.3146C19.608 21.3146 20.3434 21.6208 20.9559 22.2333C21.5684 22.8458 21.8747 23.5812 21.8747 24.4396C21.8747 25.2979 21.5684 26.0333 20.9559 26.6458C20.342 27.2569 19.6066 27.5625 18.7497 27.5625Z" fill="#EBEBEB"/>
</svg>
