<svg width="50" height="50" viewBox="0 0 50 50" fill="none" xmlns="http://www.w3.org/2000/svg">
<path d="M37.5003 16.6667C37.5003 17.7717 37.0613 18.8315 36.2799 19.6129C35.4985 20.3943 34.4387 20.8333 33.3337 20.8333C32.2286 20.8333 31.1688 20.3943 30.3874 19.6129C29.606 18.8315 29.167 17.7717 29.167 16.6667C29.167 15.5616 29.606 14.5018 30.3874 13.7204C31.1688 12.939 32.2286 12.5 33.3337 12.5C34.4387 12.5 35.4985 12.939 36.2799 13.7204C37.0613 14.5018 37.5003 15.5616 37.5003 16.6667Z" fill="#EBEBEB"/>
<path fill-rule="evenodd" clip-rule="evenodd" d="M24.8816 2.60425H25.1191C29.9295 2.60425 33.6982 2.60425 36.6399 3.00008C39.6482 3.40425 42.0232 4.25008 43.8878 6.11258C45.7524 7.97717 46.5962 10.3522 47.0003 13.3626C47.3962 16.3022 47.3962 20.0709 47.3962 24.8813V25.0647C47.3962 29.0418 47.3962 32.2959 47.1795 34.9459C46.9628 37.6126 46.5191 39.8355 45.5232 41.6855C45.0857 42.5001 44.5441 43.2313 43.8878 43.8876C42.0232 45.7522 39.6482 46.5959 36.6378 47.0001C33.6982 47.3959 29.9295 47.3959 25.1191 47.3959H24.8816C20.0712 47.3959 16.3024 47.3959 13.3607 47.0001C10.3524 46.5959 7.97741 45.7501 6.11283 43.8876C4.46074 42.2355 3.60658 40.1792 3.15449 37.6251C2.70658 35.1188 2.62533 32.0001 2.60866 28.1292C2.60449 27.1438 2.60449 26.1022 2.60449 25.0022V24.8813C2.60449 20.0709 2.60449 16.3022 3.00033 13.3605C3.40449 10.3522 4.25033 7.97717 6.11283 6.11258C7.97741 4.248 10.3524 3.40425 13.3628 3.00008C16.3024 2.60425 20.0712 2.60425 24.8816 2.60425ZM13.7774 6.09592C11.1149 6.45425 9.50866 7.13758 8.32324 8.323C7.13574 9.5105 6.45449 11.1147 6.09616 13.7792C5.73366 16.4876 5.72949 20.0459 5.72949 25.0001V26.7584L7.81491 24.9334C8.72964 24.1327 9.91454 23.7096 11.1296 23.7498C12.3446 23.79 13.4989 24.2906 14.3587 25.1501L23.2962 34.0876C23.9897 34.781 24.9056 35.2075 25.8827 35.2921C26.8598 35.3767 27.8354 35.114 28.6378 34.5501L29.2587 34.1126C30.4163 33.2991 31.8158 32.9025 33.2281 32.9877C34.6404 33.0728 35.9821 33.6347 37.0337 34.5813L42.9295 39.8876C43.5253 38.6418 43.8774 37.0043 44.0649 34.6938C44.2691 32.1834 44.2712 29.0543 44.2712 25.0001C44.2712 20.0459 44.267 16.4876 43.9045 13.7792C43.5462 11.1147 42.8628 9.50842 41.6774 8.32092C40.4899 7.1355 38.8857 6.45425 36.2212 6.09592C33.5128 5.73342 29.9545 5.72925 25.0003 5.72925C20.0462 5.72925 16.4857 5.73342 13.7774 6.09592Z" fill="#EBEBEB"/>
</svg>
