<svg width="50" height="50" viewBox="0 0 50 50" fill="none" xmlns="http://www.w3.org/2000/svg">
<path d="M32.6202 12.6282C33.231 12.6282 33.8358 12.7485 34.4001 12.9822C34.9644 13.216 35.4771 13.5585 35.909 13.9904C36.3409 14.4223 36.6835 14.935 36.9172 15.4993C37.151 16.0636 37.2713 16.6684 37.2713 17.2792C37.2713 17.89 37.151 18.4948 36.9172 19.0591C36.6835 19.6234 36.3409 20.1361 35.909 20.568C35.4771 20.9999 34.9644 21.3425 34.4001 21.5762C33.8358 21.81 33.231 21.9303 32.6202 21.9303C31.3867 21.9303 30.2037 21.4402 29.3314 20.568C28.4592 19.6958 27.9692 18.5127 27.9692 17.2792C27.9692 16.0457 28.4592 14.8627 29.3314 13.9904C30.2037 13.1182 31.3867 12.6282 32.6202 12.6282ZM20.8556 21.9084L28.3806 29.4323C28.4484 29.5004 28.5289 29.5543 28.6176 29.5912C28.7062 29.628 28.8013 29.647 28.8973 29.647C28.9933 29.647 29.0884 29.628 29.177 29.5912C29.2657 29.5543 29.3462 29.5004 29.414 29.4323L30.8546 27.9917C30.9224 27.9235 31.0029 27.8694 31.0917 27.8325C31.1805 27.7956 31.2757 27.7766 31.3718 27.7766C31.4679 27.7766 31.5631 27.7956 31.6519 27.8325C31.7406 27.8694 31.8212 27.9235 31.889 27.9917L40.0213 36.124C40.1234 36.2263 40.193 36.3567 40.2211 36.4985C40.2492 36.6403 40.2346 36.7873 40.1792 36.9209C40.1238 37.0544 40.0301 37.1686 39.9098 37.2489C39.7895 37.3291 39.6482 37.372 39.5036 37.3719H10.4963C10.3629 37.3718 10.2322 37.3352 10.1181 37.2662C10.0041 37.1971 9.91107 37.0982 9.84918 36.9801C9.78729 36.862 9.75887 36.7292 9.76698 36.5962C9.7751 36.4631 9.81944 36.3347 9.89523 36.225L19.739 22.0084C19.7999 21.9206 19.8794 21.8472 19.9718 21.7934C20.0642 21.7397 20.1673 21.7068 20.2737 21.6972C20.3802 21.6876 20.4875 21.7014 20.588 21.7377C20.6885 21.774 20.7799 21.8329 20.8556 21.9084Z" stroke="#EBEBEB" stroke-linecap="round" stroke-linejoin="round"/>
<path d="M40.1045 5.72925H9.89616C8.79109 5.72925 7.73128 6.16823 6.94988 6.94964C6.16848 7.73104 5.72949 8.79085 5.72949 9.89592V40.1043C5.72949 41.2093 6.16848 42.2691 6.94988 43.0505C7.73128 43.8319 8.79109 44.2709 9.89616 44.2709H40.1045C41.2096 44.2709 42.2694 43.8319 43.0508 43.0505C43.8322 42.2691 44.2712 41.2093 44.2712 40.1043V9.89592C44.2712 8.79085 43.8322 7.73104 43.0508 6.94964C42.2694 6.16823 41.2096 5.72925 40.1045 5.72925Z" stroke="#EBEBEB" stroke-linecap="round" stroke-linejoin="round"/>
</svg>
