<svg width="50" height="50" viewBox="0 0 50 50" fill="none" xmlns="http://www.w3.org/2000/svg">
<path d="M26.473 4.77709L45.223 23.5271C46.5355 24.8396 45.6063 27.0833 43.7501 27.0833H41.6667V39.5833C41.6667 41.2409 41.0082 42.8307 39.8361 44.0028C38.664 45.1749 37.0743 45.8333 35.4167 45.8333H33.3334V31.25C33.3335 29.6558 32.7244 28.1218 31.6307 26.962C30.5371 25.8021 29.0415 25.1039 27.4501 25.0104L27.0834 25H22.9167C21.2591 25 19.6694 25.6585 18.4973 26.8306C17.3252 28.0027 16.6667 29.5924 16.6667 31.25V45.8333H14.5834C12.9258 45.8333 11.3361 45.1749 10.164 44.0028C8.99187 42.8307 8.33339 41.2409 8.33339 39.5833V27.0833H6.25006C4.39589 27.0833 3.46464 24.8396 4.77714 23.5271L23.5271 4.77709C23.9178 4.38652 24.4476 4.16711 25.0001 4.16711C25.5525 4.16711 26.0823 4.38652 26.473 4.77709ZM27.0834 29.1667C27.6359 29.1667 28.1658 29.3862 28.5565 29.7769C28.9472 30.1676 29.1667 30.6975 29.1667 31.25V45.8333H20.8334V31.25C20.8335 30.7397 21.0208 30.2472 21.3599 29.8659C21.699 29.4846 22.1662 29.241 22.673 29.1813L22.9167 29.1667H27.0834Z" fill="#EBEBEB"/>
</svg>
