<svg width="50" height="50" viewBox="0 0 50 50" fill="none" xmlns="http://www.w3.org/2000/svg">
<path d="M25 43.75H46.875V46.875H25V43.75ZM42.1875 40.625H29.6875C27.9641 40.625 26.5625 39.2234 26.5625 37.5V29.6875C26.5625 27.9641 27.9641 26.5625 29.6875 26.5625H42.1875C43.9109 26.5625 45.3125 27.9641 45.3125 29.6875V37.5C45.3125 39.2234 43.9109 40.625 42.1875 40.625ZM29.6875 29.6875V37.5H42.1875V29.6875H29.6875ZM23.4375 35.9375H15.625C13.9016 35.9375 12.5 34.5359 12.5 32.8125V26.5625H15.625V32.8125H23.4375V35.9375ZM3.125 20.3125H25V23.4375H3.125V20.3125ZM20.3125 17.1875H7.8125C6.08906 17.1875 4.6875 15.7859 4.6875 14.0625V6.25C4.6875 4.52656 6.08906 3.125 7.8125 3.125H20.3125C22.0359 3.125 23.4375 4.52656 23.4375 6.25V14.0625C23.4375 15.7859 22.0359 17.1875 20.3125 17.1875ZM7.8125 6.25V14.0625H20.3125V6.25H7.8125Z" fill="#EBEBEB"/>
</svg>
